{
  "accessors": [
    {
      "bufferView": 2,
      "componentType": 5126,
      "count": 28,
      "max": [
        1.3919609785079956,
        -1.3596450090408325,
        -4.978147029876709
      ],
      "min": [
        1.387745976448059,
        -1.5418529510498047,
        -5.382008075714111
      ],
      "type": "VEC3"
    },
    {
      "bufferView": 2,
      "byteOffset": 336,
      "componentType": 5126,
      "count": 28,
      "max": [
        -0.27656495571136475,
        0.6511508226394653,
        0.5211041569709778
      ],
      "min": [
        -0.999988853931427,
        -0.8862338662147522,
        -0.7302419543266296
      ],
      "type": "VEC3"
    },
    {
      "bufferView": 1,
      "componentType": 5126,
      "count": 28,
      "max": [
        0.985958993434906,
        0.5528630018234253
      ],
      "min": [
        0.9859499931335449,
        0.5525630116462708
      ],
      "type": "VEC2"
    },
    {
      "bufferView": 0,
      "componentType": 5125,
      "count": 72,
      "type": "SCALAR"
    },
    {
      "bufferView": 2,
      "byteOffset": 672,
      "componentType": 5126,
      "count": 8,
      "max": [
        -1.5265350341796875,
        -1.9804500341415405,
        -0.6856639981269836
      ],
      "min": [
        -1.6571940183639526,
        -3.4990200996398926,
        -3.2606561183929443
      ],
      "type": "VEC3"
    },
    {
      "bufferView": 2,
      "byteOffset": 768,
      "componentType": 5126,
      "count": 8,
      "max": [
        -0.9967926144599915,
        0.0005819997750222683,
        0.02262200228869915
      ],
      "min": [
        -0.9997441172599792,
        -0.0,
        -0.08002597093582153
      ],
      "type": "VEC3"
    },
    {
      "bufferView": 1,
      "byteOffset": 224,
      "componentType": 5126,
      "count": 8,
      "max": [
        1.0,
        1.0
      ],
      "min": [
        0.0,
        0.0
      ],
      "type": "VEC2"
    },
    {
      "bufferView": 0,
      "byteOffset": 288,
      "componentType": 5125,
      "count": 12,
      "type": "SCALAR"
    },
    {
      "bufferView": 2,
      "byteOffset": 864,
      "componentType": 5126,
      "count": 600,
      "max": [
        1.3925479650497437,
        -0.19910100102424622,
        7.137030124664307
      ],
      "min": [
        -3.243114948272705,
        -9.077448844909668,
        -6.357083797454834
      ],
      "type": "VEC3"
    },
    {
      "bufferView": 2,
      "byteOffset": 8064,
      "componentType": 5126,
      "count": 600,
      "max": [
        0.9998096227645874,
        1.0,
        1.0
      ],
      "min": [
        -0.9997637867927551,
        -1.0,
        -1.0
      ],
      "type": "VEC3"
    },
    {
      "bufferView": 1,
      "byteOffset": 288,
      "componentType": 5126,
      "count": 600,
      "max": [
        0.9995779991149902,
        0.9303140044212341
      ],
      "min": [
        0.00012199999764561653,
        0.0005750000127591193
      ],
      "type": "VEC2"
    },
    {
      "bufferView": 0,
      "byteOffset": 336,
      "componentType": 5125,
      "count": 798,
      "type": "SCALAR"
    },
    {
      "bufferView": 2,
      "byteOffset": 15264,
      "componentType": 5126,
      "count": 55286,
      "max": [
        1.3925479650497437,
        -0.19910100102424622,
        7.137031078338623
      ],
      "min": [
        -3.2431159019470215,
        -9.077448844909668,
        -6.357083797454834
      ],
      "type": "VEC3"
    },
    {
      "bufferView": 2,
      "byteOffset": 678696,
      "componentType": 5126,
      "count": 55286,
      "max": [
        1.0,
        0.9999979734420776,
        1.0
      ],
      "min": [
        -1.0,
        -0.9999960064888,
        -1.0
      ],
      "type": "VEC3"
    },
    {
      "bufferView": 1,
      "byteOffset": 5088,
      "componentType": 5126,
      "count": 55286,
      "max": [
        0.9996299743652344,
        0.9969480037689209
      ],
      "min": [
        0.00012199999764561653,
        0.00037200000951997936
      ],
      "type": "VEC2"
    },
    {
      "bufferView": 0,
      "byteOffset": 3528,
      "componentType": 5125,
      "count": 193824,
      "type": "SCALAR"
    }
  ],
  "asset": {
    "extras": {
      "author": "artfletch (https://sketchfab.com/artfletch)",
      "license": "CC-BY-4.0 (http://creativecommons.org/licenses/by/4.0/)",
      "source": "https://sketchfab.com/3d-models/the-old-curiosity-shop-2024-1935a437b1e6457eb6c6b66034454664",
      "title": "The Old Curiosity Shop 2024"
    },
    "generator": "Sketchfab-15.61.0",
    "version": "2.0"
  },
  "bufferViews": [
    {
      "buffer": 0,
      "byteLength": 778824,
      "name": "floatBufferViews",
      "target": 34963
    },
    {
      "buffer": 0,
      "byteLength": 447376,
      "byteOffset": 778824,
      "byteStride": 8,
      "name": "floatBufferViews",
      "target": 34962
    },
    {
      "buffer": 0,
      "byteLength": 1342128,
      "byteOffset": 1226200,
      "byteStride": 12,
      "name": "floatBufferViews",
      "target": 34962
    }
  ],
  "buffers": [
    {
      "byteLength": 2568328,
      "uri": "scene.bin"
    }
  ],
  "extensionsUsed": [
    "KHR_materials_unlit"
  ],
  "images": [
    {
      "uri": "textures/TheOldCuriosityShop2024_01_Model_7TheOldCuriosityShop2024_01_Model_7_u1_v1_baseColor.jpeg"
    }
  ],
  "materials": [
    {
      "doubleSided": true,
      "extensions": {
        "KHR_materials_unlit": {}
      },
      "name": "TheOldCuriosityShop2024_01_Model_6TheOldCuriosityShop2024_01_Model_6_u1_v1",
      "pbrMetallicRoughness": {
        "baseColorFactor": [
          0.0,
          0.0,
          0.0,
          1.0
        ],
        "metallicFactor": 0.0
      }
    },
    {
      "doubleSided": true,
      "extensions": {
        "KHR_materials_unlit": {}
      },
      "name": "TheOldCuriosityShop2024_01_Model_7TheOldCuriosityShop2024_01_Model_7_u1_v1",
      "pbrMetallicRoughness": {
        "baseColorTexture": {
          "index": 0
        },
        "metallicFactor": 0.0
      }
    },
    {
      "alphaMode": "BLEND",
      "doubleSided": true,
      "extensions": {
        "KHR_materials_unlit": {}
      },
      "name": "phong1SG",
      "pbrMetallicRoughness": {
        "baseColorFactor": [
          0.38,
          0.44,
          0.5,
          0.17581361294426912
        ],
        "metallicFactor": 0.0
      }
    }
  ],
  "meshes": [
    {
      "name": "Object_0",
      "primitives": [
        {
          "attributes": {
            "NORMAL": 1,
            "POSITION": 0,
            "TEXCOORD_0": 2
          },
          "indices": 3,
          "material": 0,
          "mode": 4
        }
      ]
    },
    {
      "name": "Object_1",
      "primitives": [
        {
          "attributes": {
            "NORMAL": 5,
            "POSITION": 4,
            "TEXCOORD_0": 6
          },
          "indices": 7,
          "material": 2,
          "mode": 4
        }
      ]
    },
    {
      "name": "Object_2",
      "primitives": [
        {
          "attributes": {
            "NORMAL": 9,
            "POSITION": 8,
            "TEXCOORD_0": 10
          },
          "indices": 11,
          "material": 1,
          "mode": 4
        }
      ]
    },
    {
      "name": "Object_3",
      "primitives": [
        {
          "attributes": {
            "NORMAL": 13,
            "POSITION": 12,
            "TEXCOORD_0": 14
          },
          "indices": 15,
          "material": 1,
          "mode": 4
        }
      ]
    }
  ],
  "nodes": [
    {
      "children": [
        1
      ],
      "matrix": [
        4.440892098500626e-16,
        4.440892098500626e-16,
        -1.0,
        0.0,
        -2.220446049250313e-16,
        -1.0,
        -4.440892098500626e-16,
        0.0,
        -1.0,
        2.220446049250314e-16,
        -4.4408920985006257e-16,
        0.0,
        0.0,
        0.0,
        0.0,
        1.0
      ],
      "name": "Sketchfab_model"
    },
    {
      "children": [
        2,
        3,
        4,
        5
      ],
      "name": "TheOldCuriosityShop2024_03.obj.cleaner.materialmerger.gles"
    },
    {
      "mesh": 0,
      "name": "Object_2"
    },
    {
      "mesh": 1,
      "name": "Object_3"
    },
    {
      "mesh": 2,
      "name": "Object_4"
    },
    {
      "mesh": 3,
      "name": "Object_5"
    }
  ],
  "samplers": [
    {
      "magFilter": 9729,
      "minFilter": 9987,
      "wrapS": 10497,
      "wrapT": 10497
    }
  ],
  "scene": 0,
  "scenes": [
    {
      "name": "Sketchfab_Scene",
      "nodes": [
        0
      ]
    }
  ],
  "textures": [
    {
      "sampler": 0,
      "source": 0
    }
  ]
}
